PathFileType	4	(X/Y/Z)	imu.trc
DataRate	CameraRate	NumFrames	NumMarkers	Units	OrigDataRate	OrigDataStartFrame	OrigNumFrames
60	60	67	2	mm	60	212	1056
Frame#	Time	humerus	radius
X1	Y1	Z1	X2	Y2	Z2

212	2.11	6.27576	6.25334	6.15028	6.18788	6.28097	6.20642	
213	2.12	6.27636	6.2516	6.14305	6.18711	6.2815	6.20027	
214	2.13	6.27716	6.24988	6.13563	6.18647	6.28234	6.18794	
215	2.14	6.27786	6.24818	6.12813	6.18639	6.28273	6.18184	
216	2.15	6.2781	6.24649	6.1206	6.18612	9.7444e-005	6.17584	
217	2.16	6.27804	6.2448	6.113	6.18553	0.000813996	6.16978	
218	2.17	6.27792	6.24314	6.10543	6.18444	0.0015068	6.16362	
219	2.18	6.27772	6.24142	6.09792	6.18286	0.00210874	6.15732	
220	2.19	6.27758	6.23954	6.09045	6.18001	0.00286312	6.1444	
221	2.2	6.27757	6.23752	6.08298	6.1794	0.00312874	6.13785	
222	2.21	6.27789	6.23535	6.07543	6.1791	0.00334073	6.13142	
223	2.22	6.27855	6.23307	6.0678	6.17903	0.00349356	6.12506	
224	2.23	6.2793	6.23076	6.06008	6.17896	0.00361087	6.11884	
225	2.24	6.27975	6.22847	6.05238	6.1784	0.0038996	6.10673	
226	2.25	6.27976	6.2262	6.04491	6.17745	0.00414582	6.10076	
227	2.26	6.27954	6.22388	6.03755	6.17588	0.00439706	6.09481	
228	2.27	6.27935	6.22152	6.03025	6.17416	0.00448527	6.08879	
229	2.28	6.2794	6.21903	6.02301	6.17296	0.00439409	6.08268	
230	2.29	6.27966	6.2164	6.01576	6.1721	0.00404421	6.07025	
231	2.3	6.27998	6.21368	6.00845	6.17199	0.00386783	6.06419	
232	2.31	6.28039	6.21093	6.00106	6.1719	0.00370831	6.05817	
233	2.32	6.28094	6.20821	5.99365	6.17168	0.00359587	6.05232	
234	2.33	6.28145	6.20554	5.98642	6.17121	0.00348266	6.04661	
235	2.34	6.28164	6.20283	5.97952	6.1703	0.00339682	6.0409	
236	2.35	6.28141	6.20013	5.97274	6.16723	0.00330229	6.02947	
237	2.36	6.28092	6.19744	5.96599	6.16557	0.00322728	6.0236	
238	2.37	6.28047	6.1947	5.95914	6.16424	0.00303388	6.01762	
239	2.38	6.28025	6.19191	5.95227	6.16344	0.00268996	6.01163	
240	2.39	6.2805	6.189	5.94533	6.16318	0.00222238	6.00571	
241	2.4	6.28127	6.18595	5.93829	6.16341	0.00166786	5.99981	
242	2.41	6.28228	6.18279	5.93122	6.16419	0.000595091	5.98838	
243	2.42	6.28306	6.17966	5.9242	6.1641	0.00020429	5.98285	
244	2.43	0.000191197	6.17662	5.91717	6.16363	6.28309	5.9773	
245	2.44	0.000136806	6.17378	5.91021	6.16279	6.28288	5.97166	
246	2.45	0.000159486	6.17093	5.90318	6.16118	6.28238	5.96002	
247	2.46	0.000523312	6.1679	5.89602	6.1611	6.28184	5.95405	
248	2.47	0.00129618	6.16465	5.88874	6.16156	6.28109	5.94809	
249	2.48	0.0021374	6.16122	5.88143	6.16215	6.28032	5.94213	
250	2.49	0.00265398	6.15776	5.87411	6.1625	6.27972	5.93616	
251	2.5	0.00283049	6.15438	5.86671	6.1625	6.2793	5.93015	
252	2.51	0.00284421	6.15114	5.85916	6.16125	6.27897	5.91794	
253	2.52	0.00274171	6.14797	5.85147	6.16025	6.27882	5.91169	
254	2.53	0.00264339	6.14478	5.84354	6.15927	6.27858	5.90534	
255	2.54	0.00258885	6.14151	5.83541	6.15853	6.27823	5.89893	
256	2.55	0.00247694	6.13811	5.82717	6.15804	6.27776	5.89246	
257	2.56	0.00224124	6.13454	5.81882	6.15714	6.27685	5.87931	
258	2.57	0.00182325	6.13092	5.81034	6.15634	6.27665	5.87271	
259	2.58	0.00118437	6.12733	5.80162	6.15524	6.27655	5.86597	
260	2.59	0.000260768	6.12382	5.79265	6.15374	6.27659	5.85911	
261	2.6	6.28287	6.1221	5.78812	6.15187	6.27681	5.85218	
262	2.61	6.28149	6.11878	5.77903	6.14723	6.27751	5.83802	
263	2.62	6.27991	6.1155	5.76988	6.14493	6.27786	5.83063	
264	2.63	6.27845	6.1122	5.76084	6.14301	6.2781	5.82316	
265	2.64	6.27736	6.10871	5.75163	6.14159	6.27821	5.81553	
266	2.65	6.27673	6.10495	5.74217	6.14077	6.27816	5.80775	
267	2.66	6.27647	6.10094	5.73252	6.14061	6.27763	5.79238	
268	2.67	6.27632	6.09676	5.72274	6.14038	6.27751	5.78479	
269	2.68	6.276	6.09266	5.71297	6.13977	6.27764	5.77719	
270	2.69	6.27518	6.0888	5.70329	6.13856	6.27807	5.76961	
271	2.7	6.27389	6.08517	5.69346	6.13673	6.27876	5.76198	
272	2.71	6.27245	6.08183	5.6835	6.13464	6.2795	5.75427	
273	2.72	6.27108	6.07857	5.67333	6.13126	6.2806	5.73855	
274	2.73	6.26985	6.07528	5.66314	6.13027	6.28096	5.73074	
275	2.74	6.26877	6.07201	5.65302	6.12975	6.28136	5.72308	
276	2.75	6.26779	6.06889	5.6431	6.12947	6.2819	5.7155	
277	2.76	6.26678	6.06584	5.633	6.12909	6.28271	5.70791	
278	2.77	6.26578	6.06328	5.62392	6.12745	0.00203832	5.69252	
